<svg width="1334" height="1067" viewBox="0 0 1334 1067" fill="none" xmlns="http://www.w3.org/2000/svg">
<path d="M713.704 380.509C713.704 380.509 714.74 378.623 716.032 375.509C714.159 374.857 713.704 380.509 713.704 380.509Z" fill="#CE576F"/>
<path d="M964.424 475.748C961.324 460.244 946.263 394.241 911.268 371.207C876.275 348.172 884.248 325.581 861.656 321.595C839.065 317.608 805.843 312.735 798.755 326.467C791.667 340.199 786.352 365.891 789.896 370.321C793.439 374.751 814.259 375.193 827.548 370.321C840.836 365.448 851.025 361.461 863.428 371.649C875.831 381.839 867.415 446.068 889.564 463.787C889.564 463.787 874.503 458.472 870.959 452.271C867.415 446.068 833.751 435.437 814.259 457.143C794.768 478.848 781.479 493.023 781.479 493.023L804.956 457.143C804.956 457.143 794.325 440.309 767.748 451.827C741.169 463.344 734.968 473.532 722.564 470.875C722.564 470.875 722.475 470.947 722.329 471.061C712.372 465.891 704.717 455.341 705.565 445.183C706.451 434.552 712.209 420.82 719.297 412.845C726.384 404.872 729.927 385.825 727.269 380.067C724.612 374.308 720.625 377.408 720.625 377.408C730.371 341.085 713.095 326.467 713.095 326.467C721.512 324.695 725.055 304.319 725.055 304.319C713.537 319.823 663.481 303.876 644.877 307.863C626.273 311.849 624.059 326.467 624.059 326.467C605.817 341.111 613.001 365.163 617.301 375.509C616.552 375.771 615.579 377.032 614.312 380.067C609.884 390.697 626.716 418.161 630.259 437.209C633.804 456.257 623.173 468.217 610.769 470.875C598.365 473.532 592.164 463.344 565.585 451.827C539.008 440.309 528.377 457.143 528.377 457.143L551.855 493.023C551.855 493.023 538.565 478.848 519.076 457.143C499.584 435.437 465.919 446.068 462.375 452.271C458.831 458.472 443.771 463.787 443.771 463.787C465.919 446.068 457.503 381.839 469.905 371.649C482.308 361.461 492.497 365.448 505.787 370.321C519.076 375.193 539.895 374.751 543.439 370.321C546.981 365.891 541.667 340.199 534.579 326.467C527.491 312.735 494.268 317.608 471.677 321.595C449.085 325.581 457.06 348.172 422.065 371.207C387.071 394.241 372.009 460.244 368.909 475.748C365.807 491.251 404.789 503.655 445.985 533.333C487.181 563.012 522.619 557.253 522.619 557.253V535.991C522.619 535.991 529.705 566.556 541.223 597.564C552.741 628.572 577.989 653.377 577.989 653.377C588.179 639.645 596.151 608.195 596.151 608.195C591.279 647.619 561.6 723.809 561.6 723.809C610.739 729.177 659.869 758.021 666.307 761.909V762.348C666.307 762.348 666.431 762.271 666.667 762.128C666.904 762.271 667.027 762.348 667.027 762.348V761.909C673.464 758.021 722.595 729.177 771.733 723.809C771.733 723.809 742.055 647.619 737.183 608.195C737.183 608.195 745.155 639.645 755.344 653.377C755.344 653.377 780.593 628.572 792.111 597.564C803.628 566.556 810.715 535.991 810.715 535.991V557.253C810.715 557.253 846.152 563.012 887.348 533.333C928.544 503.655 967.527 491.251 964.424 475.748" fill="#CE576F"/>
</svg>
